<svg xmlns="http://www.w3.org/2000/svg" viewBox="0 0 682 550" width="682" height="550">
  <style>
    .label { font-family: sans-serif; font-size: 18px; font-weight: 700; text-anchor: middle; fill: white; }
    .grid-stroke { stroke: #888; stroke-width: 0.6; }
    .pixel { fill: #dcdcdc; }
    .pixel-dark { fill: #bfbfbf; }
    .pixel-light { fill: #efefef; }
    .feature { fill: #b9f2e1; stroke: #2aa198; stroke-width: 0.6; }
    .kernel { fill: rgba(80, 144, 226, 0.2); stroke: #4a90e2; stroke-width: 2; stroke-dasharray: 6 4; }
    .arrow-line { stroke: #999; stroke-width: 2; }
    .arrow-head { fill: #999; }
    .output { fill: #e94e77; stroke: #a02c3f; stroke-width: 1.5; }
    .callout { font-family: sans-serif; font-size: 13px; fill: white; }
  </style>
<text class="label" x="124.0" y="20">Input image</text><text class="callout" x="124.0" y="38">3×3 filter window</text><text class="label" x="395.0" y="20">Feature map</text><text class="label" x="602" y="20">Outputs</text><rect x="40" y="50" width="15" height="15" class="pixel grid-stroke"/><rect x="57" y="50" width="15" height="15" class="pixel-dark grid-stroke"/><rect x="74" y="50" width="15" height="15" class="pixel-light grid-stroke"/><rect x="91" y="50" width="15" height="15" class="pixel grid-stroke"/><rect x="108" y="50" width="15" height="15" class="pixel-dark grid-stroke"/><rect x="125" y="50" width="15" height="15" class="pixel-light grid-stroke"/><rect x="142" y="50" width="15" height="15" class="pixel grid-stroke"/><rect x="159" y="50" width="15" height="15" class="pixel-dark grid-stroke"/><rect x="176" y="50" width="15" height="15" class="pixel-light grid-stroke"/><rect x="193" y="50" width="15" height="15" class="pixel grid-stroke"/><rect x="40" y="67" width="15" height="15" class="pixel-dark grid-stroke"/><rect x="57" y="67" width="15" height="15" class="pixel-light grid-stroke"/><rect x="74" y="67" width="15" height="15" class="pixel grid-stroke"/><rect x="91" y="67" width="15" height="15" class="pixel-dark grid-stroke"/><rect x="108" y="67" width="15" height="15" class="pixel-light grid-stroke"/><rect x="125" y="67" width="15" height="15" class="pixel grid-stroke"/><rect x="142" y="67" width="15" height="15" class="pixel-dark grid-stroke"/><rect x="159" y="67" width="15" height="15" class="pixel-light grid-stroke"/><rect x="176" y="67" width="15" height="15" class="pixel grid-stroke"/><rect x="193" y="67" width="15" height="15" class="pixel-dark grid-stroke"/><rect x="40" y="84" width="15" height="15" class="pixel-light grid-stroke"/><rect x="57" y="84" width="15" height="15" class="pixel grid-stroke"/><rect x="74" y="84" width="15" height="15" class="pixel-dark grid-stroke"/><rect x="91" y="84" width="15" height="15" class="pixel-light grid-stroke"/><rect x="108" y="84" width="15" height="15" class="pixel grid-stroke"/><rect x="125" y="84" width="15" height="15" class="pixel-dark grid-stroke"/><rect x="142" y="84" width="15" height="15" class="pixel-light grid-stroke"/><rect x="159" y="84" width="15" height="15" class="pixel grid-stroke"/><rect x="176" y="84" width="15" height="15" class="pixel-dark grid-stroke"/><rect x="193" y="84" width="15" height="15" class="pixel-light grid-stroke"/><rect x="40" y="101" width="15" height="15" class="pixel grid-stroke"/><rect x="57" y="101" width="15" height="15" class="pixel-dark grid-stroke"/><rect x="74" y="101" width="15" height="15" class="pixel-light grid-stroke"/><rect x="91" y="101" width="15" height="15" class="pixel grid-stroke"/><rect x="108" y="101" width="15" height="15" class="pixel-dark grid-stroke"/><rect x="125" y="101" width="15" height="15" class="pixel-light grid-stroke"/><rect x="142" y="101" width="15" height="15" class="pixel grid-stroke"/><rect x="159" y="101" width="15" height="15" class="pixel-dark grid-stroke"/><rect x="176" y="101" width="15" height="15" class="pixel-light grid-stroke"/><rect x="193" y="101" width="15" height="15" class="pixel grid-stroke"/><rect x="40" y="118" width="15" height="15" class="pixel-dark grid-stroke"/><rect x="57" y="118" width="15" height="15" class="pixel-light grid-stroke"/><rect x="74" y="118" width="15" height="15" class="pixel grid-stroke"/><rect x="91" y="118" width="15" height="15" class="pixel-dark grid-stroke"/><rect x="108" y="118" width="15" height="15" class="pixel-light grid-stroke"/><rect x="125" y="118" width="15" height="15" class="pixel grid-stroke"/><rect x="142" y="118" width="15" height="15" class="pixel-dark grid-stroke"/><rect x="159" y="118" width="15" height="15" class="pixel-light grid-stroke"/><rect x="176" y="118" width="15" height="15" class="pixel grid-stroke"/><rect x="193" y="118" width="15" height="15" class="pixel-dark grid-stroke"/><rect x="40" y="135" width="15" height="15" class="pixel-light grid-stroke"/><rect x="57" y="135" width="15" height="15" class="pixel grid-stroke"/><rect x="74" y="135" width="15" height="15" class="pixel-dark grid-stroke"/><rect x="91" y="135" width="15" height="15" class="pixel-light grid-stroke"/><rect x="108" y="135" width="15" height="15" class="pixel grid-stroke"/><rect x="125" y="135" width="15" height="15" class="pixel-dark grid-stroke"/><rect x="142" y="135" width="15" height="15" class="pixel-light grid-stroke"/><rect x="159" y="135" width="15" height="15" class="pixel grid-stroke"/><rect x="176" y="135" width="15" height="15" class="pixel-dark grid-stroke"/><rect x="193" y="135" width="15" height="15" class="pixel-light grid-stroke"/><rect x="40" y="152" width="15" height="15" class="pixel grid-stroke"/><rect x="57" y="152" width="15" height="15" class="pixel-dark grid-stroke"/><rect x="74" y="152" width="15" height="15" class="pixel-light grid-stroke"/><rect x="91" y="152" width="15" height="15" class="pixel grid-stroke"/><rect x="108" y="152" width="15" height="15" class="pixel-dark grid-stroke"/><rect x="125" y="152" width="15" height="15" class="pixel-light grid-stroke"/><rect x="142" y="152" width="15" height="15" class="pixel grid-stroke"/><rect x="159" y="152" width="15" height="15" class="pixel-dark grid-stroke"/><rect x="176" y="152" width="15" height="15" class="pixel-light grid-stroke"/><rect x="193" y="152" width="15" height="15" class="pixel grid-stroke"/><rect x="40" y="169" width="15" height="15" class="pixel-dark grid-stroke"/><rect x="57" y="169" width="15" height="15" class="pixel-light grid-stroke"/><rect x="74" y="169" width="15" height="15" class="pixel grid-stroke"/><rect x="91" y="169" width="15" height="15" class="pixel-dark grid-stroke"/><rect x="108" y="169" width="15" height="15" class="pixel-light grid-stroke"/><rect x="125" y="169" width="15" height="15" class="pixel grid-stroke"/><rect x="142" y="169" width="15" height="15" class="pixel-dark grid-stroke"/><rect x="159" y="169" width="15" height="15" class="pixel-light grid-stroke"/><rect x="176" y="169" width="15" height="15" class="pixel grid-stroke"/><rect x="193" y="169" width="15" height="15" class="pixel-dark grid-stroke"/><rect x="40" y="186" width="15" height="15" class="pixel-light grid-stroke"/><rect x="57" y="186" width="15" height="15" class="pixel grid-stroke"/><rect x="74" y="186" width="15" height="15" class="pixel-dark grid-stroke"/><rect x="91" y="186" width="15" height="15" class="pixel-light grid-stroke"/><rect x="108" y="186" width="15" height="15" class="pixel grid-stroke"/><rect x="125" y="186" width="15" height="15" class="pixel-dark grid-stroke"/><rect x="142" y="186" width="15" height="15" class="pixel-light grid-stroke"/><rect x="159" y="186" width="15" height="15" class="pixel grid-stroke"/><rect x="176" y="186" width="15" height="15" class="pixel-dark grid-stroke"/><rect x="193" y="186" width="15" height="15" class="pixel-light grid-stroke"/><rect x="40" y="203" width="15" height="15" class="pixel grid-stroke"/><rect x="57" y="203" width="15" height="15" class="pixel-dark grid-stroke"/><rect x="74" y="203" width="15" height="15" class="pixel-light grid-stroke"/><rect x="91" y="203" width="15" height="15" class="pixel grid-stroke"/><rect x="108" y="203" width="15" height="15" class="pixel-dark grid-stroke"/><rect x="125" y="203" width="15" height="15" class="pixel-light grid-stroke"/><rect x="142" y="203" width="15" height="15" class="pixel grid-stroke"/><rect x="159" y="203" width="15" height="15" class="pixel-dark grid-stroke"/><rect x="176" y="203" width="15" height="15" class="pixel-light grid-stroke"/><rect x="193" y="203" width="15" height="15" class="pixel grid-stroke"/><rect x="89" y="99" width="53" height="53" class="kernel"/><rect x="348" y="60" width="10" height="10" class="feature" opacity="0.7"/><rect x="360" y="60" width="10" height="10" class="feature" opacity="0.7"/><rect x="372" y="60" width="10" height="10" class="feature" opacity="0.7"/><rect x="384" y="60" width="10" height="10" class="feature" opacity="0.7"/><rect x="396" y="60" width="10" height="10" class="feature" opacity="0.7"/><rect x="408" y="60" width="10" height="10" class="feature" opacity="0.7"/><rect x="420" y="60" width="10" height="10" class="feature" opacity="0.7"/><rect x="432" y="60" width="10" height="10" class="feature" opacity="0.7"/><rect x="348" y="72" width="10" height="10" class="feature" opacity="0.7"/><rect x="360" y="72" width="10" height="10" class="feature" opacity="0.9"/><rect x="372" y="72" width="10" height="10" class="feature" opacity="0.9"/><rect x="384" y="72" width="10" height="10" class="feature" opacity="0.9"/><rect x="396" y="72" width="10" height="10" class="feature" opacity="0.9"/><rect x="408" y="72" width="10" height="10" class="feature" opacity="0.9"/><rect x="420" y="72" width="10" height="10" class="feature" opacity="0.9"/><rect x="432" y="72" width="10" height="10" class="feature" opacity="0.7"/><rect x="348" y="84" width="10" height="10" class="feature" opacity="0.7"/><rect x="360" y="84" width="10" height="10" class="feature" opacity="0.9"/><rect x="372" y="84" width="10" height="10" class="feature" opacity="0.9"/><rect x="384" y="84" width="10" height="10" class="feature" opacity="0.9"/><rect x="396" y="84" width="10" height="10" class="feature" opacity="0.9"/><rect x="408" y="84" width="10" height="10" class="feature" opacity="0.9"/><rect x="420" y="84" width="10" height="10" class="feature" opacity="0.9"/><rect x="432" y="84" width="10" height="10" class="feature" opacity="0.7"/><rect x="348" y="96" width="10" height="10" class="feature" opacity="0.7"/><rect x="360" y="96" width="10" height="10" class="feature" opacity="0.9"/><rect x="372" y="96" width="10" height="10" class="feature" opacity="0.9"/><rect x="384" y="96" width="10" height="10" class="feature" opacity="0.9"/><rect x="396" y="96" width="10" height="10" class="feature" opacity="0.9"/><rect x="408" y="96" width="10" height="10" class="feature" opacity="0.9"/><rect x="420" y="96" width="10" height="10" class="feature" opacity="0.9"/><rect x="432" y="96" width="10" height="10" class="feature" opacity="0.7"/><rect x="348" y="108" width="10" height="10" class="feature" opacity="0.7"/><rect x="360" y="108" width="10" height="10" class="feature" opacity="0.9"/><rect x="372" y="108" width="10" height="10" class="feature" opacity="0.9"/><rect x="384" y="108" width="10" height="10" class="feature" opacity="0.9"/><rect x="396" y="108" width="10" height="10" class="feature" opacity="0.9"/><rect x="408" y="108" width="10" height="10" class="feature" opacity="0.9"/><rect x="420" y="108" width="10" height="10" class="feature" opacity="0.9"/><rect x="432" y="108" width="10" height="10" class="feature" opacity="0.7"/><rect x="348" y="120" width="10" height="10" class="feature" opacity="0.7"/><rect x="360" y="120" width="10" height="10" class="feature" opacity="0.9"/><rect x="372" y="120" width="10" height="10" class="feature" opacity="0.9"/><rect x="384" y="120" width="10" height="10" class="feature" opacity="0.9"/><rect x="396" y="120" width="10" height="10" class="feature" opacity="0.9"/><rect x="408" y="120" width="10" height="10" class="feature" opacity="0.9"/><rect x="420" y="120" width="10" height="10" class="feature" opacity="0.9"/><rect x="432" y="120" width="10" height="10" class="feature" opacity="0.7"/><rect x="348" y="132" width="10" height="10" class="feature" opacity="0.7"/><rect x="360" y="132" width="10" height="10" class="feature" opacity="0.9"/><rect x="372" y="132" width="10" height="10" class="feature" opacity="0.9"/><rect x="384" y="132" width="10" height="10" class="feature" opacity="0.9"/><rect x="396" y="132" width="10" height="10" class="feature" opacity="0.9"/><rect x="408" y="132" width="10" height="10" class="feature" opacity="0.9"/><rect x="420" y="132" width="10" height="10" class="feature" opacity="0.9"/><rect x="432" y="132" width="10" height="10" class="feature" opacity="0.7"/><rect x="348" y="144" width="10" height="10" class="feature" opacity="0.7"/><rect x="360" y="144" width="10" height="10" class="feature" opacity="0.7"/><rect x="372" y="144" width="10" height="10" class="feature" opacity="0.7"/><rect x="384" y="144" width="10" height="10" class="feature" opacity="0.7"/><rect x="396" y="144" width="10" height="10" class="feature" opacity="0.7"/><rect x="408" y="144" width="10" height="10" class="feature" opacity="0.7"/><rect x="420" y="144" width="10" height="10" class="feature" opacity="0.7"/><rect x="432" y="144" width="10" height="10" class="feature" opacity="0.7"/><circle cx="602" cy="40.0" r="10" class="output"/><circle cx="602" cy="88.88888888888889" r="10" class="output"/><circle cx="602" cy="137.77777777777777" r="10" class="output"/><circle cx="602" cy="186.66666666666666" r="10" class="output"/><circle cx="602" cy="235.55555555555554" r="10" class="output"/><circle cx="602" cy="284.44444444444446" r="10" class="output"/><circle cx="602" cy="333.3333333333333" r="10" class="output"/><circle cx="602" cy="382.2222222222222" r="10" class="output"/><circle cx="602" cy="431.1111111111111" r="10" class="output"/><circle cx="602" cy="480.0" r="10" class="output"/><line class="arrow-line" x1="115.5" y1="125.5" x2="395.0" y2="107.0"/><polygon class="arrow-head" points="395.0,107.0 383.35642588269104,112.78162449271251 382.695974798312,102.80345810979712"/><line class="arrow-line" x1="462" y1="107.0" x2="572" y2="260.0"/><polygon class="arrow-head" points="572,260.0 560.9353714624091,253.1754857077497 569.0547391662527,247.33803180302547"/></svg>